<svg xmlns="http://www.w3.org/2000/svg" width="88" height="86" fill="none" viewBox="0 0 88 86">
    <path fill="#FB0" d="M87.887 44.748c.146-.736.06-1.48-.026-2.208-.12-1.03-.12-2.051-.154-3.082-.008-.327.077-.678-.154-.98-.18-.81-.308-1.62-.436-2.437-.172-1.087-.36-2.19-.694-3.253-.051-.164-.128-.336-.06-.515l-.025-.107.025.107c.043-.131-.043-.287.077-.41.043.132.077.254.12.385.325 1.112.48 2.256.848 3.36 0 .139-.017.286.145.384.086-.196.035-.368.017-.54l-.017.017c.009-.008.009-.016.017-.016.018-.434-.094-.859-.197-1.276-.445-1.864-.924-3.72-1.6-5.518-.531-1.406-.976-2.861-1.96-4.071-.172-.785-.711-1.406-1.011-2.142-.034.05-.06.074-.094.074.026-.025.051-.05.094-.074-.317-.605-.72-1.169-1.122-1.725-1.19-1.66-2.2-3.433-3.527-5.02-1.96-2.346-4.169-4.422-6.617-6.31-1.73-1.341-3.613-2.412-5.496-3.5-1.387-.8-2.834-1.487-4.28-2.19-1.824-.883-3.767-1.488-5.719-2.052-.976-.286-1.995-.36-2.97-.621-2.278-.622-4.623-.81-6.96-.981-1.507-.115-3.005.016-4.495.032-1.61.017-3.167.49-4.777.523-.274.009-.556.074-.839.14-.822.18-1.635.408-2.474.53-1.327.189-2.602.557-3.792 1.153-.702.18-1.387.41-1.978.826-1.447.442-2.885.924-4.152 1.766-.873.58-1.686 1.267-2.68 1.676-.017-.008-.034-.008-.042 0-.086-.196-.18-.213-.283-.008l-.085.081c-.129.074-.257.205-.386.205-.248 0-.222.139-.23.278-.403.261-.788.556-1.182.825-1.755 1.194-3.493 2.428-4.923 3.99-.761.842-1.737 1.488-2.422 2.395-.497.654-1.147 1.177-1.644 1.823-.702.916-1.352 1.864-2.072 2.755-1.172 1.447-1.986 3.074-2.808 4.7-.145.238-.282.483-.428.72-.11.172-.077.319.086.442-.103.245-.65.408-.171.776.017.008 0 .09-.017.107-.206.188-.231.457-.343.678-.548 1.112-1.104 2.232-1.173 3.499l-.282.646c-.411.147-.283.482-.3.768-.008.295-.128.556-.24.818-.265.654-.487 1.332-.641 2.019-.283.793-.497 1.594-.6 2.428-.017.065-.043.123-.06.188-.197 1.03-.18 2.085-.342 3.107-.197 1.177-.274 2.346-.18 3.523.017.245.043.499-.026.728-.256.907-.068 1.798.009 2.697 0 .058 0 .107.009.164.11 1.57.916 2.992 1.13 4.537-.172.229-.197.458.017.678.094.81.47 1.554.599 2.355-.283.172-.094.245.077.327.034.319.094.646.111.965.026.605.223 1.144.548 1.651.317.973.805 1.872 1.25 2.796.086.392.248.752.548 1.046.086.066.009.164.06.254.402.637.616 1.357.95 2.019.608 1.242 1.293 2.444 2.243 3.507.462.515.762 1.177 1.224 1.709.548.637 1.139 1.242 1.764 1.823-.06.122-.12.261-.017.376.342.384.702.76 1.053 1.144.008.098.077.156.17.196.36.336.626.752 1.037 1.047v.008c.06.098.094.229.248.237.368.36.736.72 1.104 1.071.214.27.48.474.762.67.069.05.137.098.206.14.35.26.616.612 1.01.817.034.024.06.057.094.082.214.212.47.376.753.498.232.131.463.262.694.4.214.042.257.312.488.336.026.163.171.229.29.31.078.074.155.164.24.23 2.072 1.553 4.452 2.624 6.815 3.678 1.72.769 3.518 1.39 5.316 1.987 1.327.441 2.646.866 4.04 1.063.634.008 1.242.4 1.901.147.266-.066.369.196.574.261 1.13.36 2.294.483 3.476.442.907-.033 1.797.229 2.705.122.719-.09 1.43-.106 2.157-.065 2.158.123 4.255-.319 6.37-.621.838-.123 1.617-.458 2.422-.72.942-.31 1.935-.498 2.885-.776 2.106-.622 4.05-1.603 6.035-2.502.309-.139.617-.286.9-.466 1.027-.662 2.08-1.275 3.124-1.913 1.301-.801 2.603-1.594 3.852-2.46.762-.532 1.233-1.308 1.91-1.905.53-.23 1.035-.499 1.37-.973.461-.368.812-.834 1.24-1.218 1.036-.932 1.85-2.036 2.714-3.099.206-.253.266-.596.522-.825.9-.801 1.507-1.823 2.166-2.796 1.541-2.24 2.551-4.725 3.562-7.21.23-.58.256-1.219.539-1.774.762-1.488 1.036-3.115 1.447-4.701.068-.286.034-.597.18-.867.18-.327.256-.686.316-1.046.163-.948.154-1.93.488-2.853.112-.303.086-.638.163-.957.068-.261-.231-.367-.223-.564 0-.302.077-.613.12-.915zM.464 44.233c-.017-.09-.042-.188-.008-.27-.009.082 0 .18.008.27zm.026.286c-.009-.017-.009-.025-.009-.041.009-.025.009-.05.009-.074.009.05.009.09.009.14 0-.009 0-.017-.009-.025zm85.47-14.151c0-.008.01-.008 0 0 .01-.008.01 0 .01 0 .06.31.17.613.265.915 0 .008.008.017.008.025s0 .008-.008.016c-.094-.31-.206-.613-.274-.932.008-.008 0-.016 0-.024z"/>
    <mask id="prefix__a" width="30" height="21" x="29" y="32" maskUnits="userSpaceOnUse">
        <path fill="#fff" fill-rule="evenodd" d="M29 32.266h29.538v20.322H29.001V32.266z" clip-rule="evenodd"/>
    </mask>
    <g mask="url(#prefix__a)">
        <path fill="#fff" fill-rule="evenodd" d="M53.94 52.588H33.6c-2.537 0-4.598-1.907-4.598-4.255V36.521c0-.735.596-1.332 1.331-1.332.736 0 1.332.597 1.332 1.332v11.812c0 .88.867 1.591 1.935 1.591H53.94c1.067 0 1.934-.712 1.934-1.59V36.52c0-.877-.867-1.591-1.934-1.591-.735 0-1.332-.597-1.332-1.332 0-.736.597-1.332 1.332-1.332 2.536 0 4.598 1.909 4.598 4.255v11.812c0 2.348-2.062 4.255-4.598 4.255z" clip-rule="evenodd"/>
    </g>
    <path fill="#fff" fill-rule="evenodd" d="M49.44 56.309H38.01c-.735 0-1.332-.597-1.332-1.332 0-.736.597-1.332 1.332-1.332h11.43c.735 0 1.332.596 1.332 1.331 0 .736-.597 1.333-1.332 1.333z" clip-rule="evenodd"/>
    <mask id="prefix__b" width="19" height="18" x="33" y="27" maskUnits="userSpaceOnUse">
        <path fill="#fff" fill-rule="evenodd" d="M33.236 27.668h18.25v16.337h-18.25V27.668z" clip-rule="evenodd"/>
    </mask>
    <g mask="url(#prefix__b)">
        <path fill="#fff" fill-rule="evenodd" d="M41.453 36.338l-7.848-2.128c-.477-.13-.497-.73-.028-.884l17.208-5.628c.415-.137.822.225.67.598l-6.288 15.403c-.172.421-.844.403-.99-.025l-2.376-7.026c-.05-.149-.179-.266-.348-.31z" clip-rule="evenodd"/>
    </g>
</svg>
